<?xml version="1.0" encoding="UTF-8" standalone="no"?>
<!DOCTYPE svg PUBLIC "-//W3C//DTD SVG 1.1//EN"
 "http://www.w3.org/Graphics/SVG/1.1/DTD/svg11.dtd">
<!-- Generated by graphviz version 2.30.1 (20180420.1509)
 -->
<!-- Title: snakemake_dag Pages: 1 -->
<svg width="1495pt" height="980pt"
 viewBox="0.00 0.00 1495.00 980.00" xmlns="http://www.w3.org/2000/svg" xmlns:xlink="http://www.w3.org/1999/xlink">
<g id="graph0" class="graph" transform="scale(1 1) rotate(0) translate(4 976)">
<title>snakemake_dag</title>
<polygon fill="white" stroke="white" points="-4,5 -4,-976 1492,-976 1492,5 -4,5"/>
<!-- 0 -->
<g id="node1" class="node"><title>0</title>
<path fill="none" stroke="#56d8b1" stroke-width="2" d="M657,-36C657,-36 627,-36 627,-36 621,-36 615,-30 615,-24 615,-24 615,-12 615,-12 615,-6 621,-0 627,-0 627,-0 657,-0 657,-0 663,-0 669,-6 669,-12 669,-12 669,-24 669,-24 669,-30 663,-36 657,-36"/>
<text text-anchor="middle" x="642" y="-15.5" font-family="sans" font-size="10.00">all</text>
</g>
<!-- 1 -->
<g id="node2" class="node"><title>1</title>
<path fill="none" stroke="#56d8c1" stroke-width="2" d="M496,-108C496,-108 398,-108 398,-108 392,-108 386,-102 386,-96 386,-96 386,-84 386,-84 386,-78 392,-72 398,-72 398,-72 496,-72 496,-72 502,-72 508,-78 508,-84 508,-84 508,-96 508,-96 508,-102 502,-108 496,-108"/>
<text text-anchor="middle" x="447" y="-87.5" font-family="sans" font-size="10.00">_r07a_run_matrix2_fc</text>
</g>
<!-- 1&#45;&gt;0 -->
<g id="edge1" class="edge"><title>1&#45;&gt;0</title>
<path fill="none" stroke="grey" stroke-width="2" d="M494.702,-71.8761C528.786,-59.641 573.968,-43.4219 605.262,-32.188"/>
<polygon fill="grey" stroke="grey" points="606.673,-35.4001 614.903,-28.7272 604.308,-28.8117 606.673,-35.4001"/>
</g>
<!-- 2 -->
<g id="node3" class="node"><title>2</title>
<path fill="none" stroke="#56d8c9" stroke-width="2" d="M692.25,-108C692.25,-108 591.75,-108 591.75,-108 585.75,-108 579.75,-102 579.75,-96 579.75,-96 579.75,-84 579.75,-84 579.75,-78 585.75,-72 591.75,-72 591.75,-72 692.25,-72 692.25,-72 698.25,-72 704.25,-78 704.25,-84 704.25,-84 704.25,-96 704.25,-96 704.25,-102 698.25,-108 692.25,-108"/>
<text text-anchor="middle" x="642" y="-87.5" font-family="sans" font-size="10.00">_r07b_run_matrix2_dc</text>
</g>
<!-- 2&#45;&gt;0 -->
<g id="edge2" class="edge"><title>2&#45;&gt;0</title>
<path fill="none" stroke="grey" stroke-width="2" d="M642,-71.6966C642,-63.9827 642,-54.7125 642,-46.1124"/>
<polygon fill="grey" stroke="grey" points="645.5,-46.1043 642,-36.1043 638.5,-46.1044 645.5,-46.1043"/>
</g>
<!-- 3 -->
<g id="node4" class="node"><title>3</title>
<path fill="none" stroke="#80d856" stroke-width="2" d="M867,-108C867,-108 767,-108 767,-108 761,-108 755,-102 755,-96 755,-96 755,-84 755,-84 755,-78 761,-72 767,-72 767,-72 867,-72 867,-72 873,-72 879,-78 879,-84 879,-84 879,-96 879,-96 879,-102 873,-108 867,-108"/>
<text text-anchor="middle" x="817" y="-87.5" font-family="sans" font-size="10.00">_r07c_run_matrix2_cx</text>
</g>
<!-- 3&#45;&gt;0 -->
<g id="edge3" class="edge"><title>3&#45;&gt;0</title>
<path fill="none" stroke="grey" stroke-width="2" d="M774.19,-71.8761C744.863,-60.1452 706.38,-44.7519 678.504,-33.6016"/>
<polygon fill="grey" stroke="grey" points="679.703,-30.3118 669.119,-29.8475 677.104,-36.8112 679.703,-30.3118"/>
</g>
<!-- 4 -->
<g id="node5" class="node"><title>4</title>
<path fill="none" stroke="#569ad8" stroke-width="2" d="M455,-180C455,-180 331,-180 331,-180 325,-180 319,-174 319,-168 319,-168 319,-156 319,-156 319,-150 325,-144 331,-144 331,-144 455,-144 455,-144 461,-144 467,-150 467,-156 467,-156 467,-168 467,-168 467,-174 461,-180 455,-180"/>
<text text-anchor="middle" x="393" y="-159.5" font-family="sans" font-size="10.00">_r06a_run_matrixmaker_fc</text>
</g>
<!-- 4&#45;&gt;1 -->
<g id="edge4" class="edge"><title>4&#45;&gt;1</title>
<path fill="none" stroke="grey" stroke-width="2" d="M406.348,-143.697C412.757,-135.389 420.558,-125.277 427.606,-116.141"/>
<polygon fill="grey" stroke="grey" points="430.468,-118.16 433.805,-108.104 424.926,-113.884 430.468,-118.16"/>
</g>
<!-- 5 -->
<g id="node6" class="node"><title>5</title>
<path fill="none" stroke="#d8a456" stroke-width="2" d="M705,-180C705,-180 579,-180 579,-180 573,-180 567,-174 567,-168 567,-168 567,-156 567,-156 567,-150 573,-144 579,-144 579,-144 705,-144 705,-144 711,-144 717,-150 717,-156 717,-156 717,-168 717,-168 717,-174 711,-180 705,-180"/>
<text text-anchor="middle" x="642" y="-159.5" font-family="sans" font-size="10.00">_r06b_run_matrixmaker_dc</text>
</g>
<!-- 5&#45;&gt;2 -->
<g id="edge5" class="edge"><title>5&#45;&gt;2</title>
<path fill="none" stroke="grey" stroke-width="2" d="M642,-143.697C642,-135.983 642,-126.712 642,-118.112"/>
<polygon fill="grey" stroke="grey" points="645.5,-118.104 642,-108.104 638.5,-118.104 645.5,-118.104"/>
</g>
<!-- 6 -->
<g id="node7" class="node"><title>6</title>
<path fill="none" stroke="#56b1d8" stroke-width="2" d="M912.25,-180C912.25,-180 787.75,-180 787.75,-180 781.75,-180 775.75,-174 775.75,-168 775.75,-168 775.75,-156 775.75,-156 775.75,-150 781.75,-144 787.75,-144 787.75,-144 912.25,-144 912.25,-144 918.25,-144 924.25,-150 924.25,-156 924.25,-156 924.25,-168 924.25,-168 924.25,-174 918.25,-180 912.25,-180"/>
<text text-anchor="middle" x="850" y="-159.5" font-family="sans" font-size="10.00">_r06c_run_matrixmaker_cx</text>
</g>
<!-- 6&#45;&gt;3 -->
<g id="edge6" class="edge"><title>6&#45;&gt;3</title>
<path fill="none" stroke="grey" stroke-width="2" d="M841.843,-143.697C838.086,-135.728 833.547,-126.1 829.382,-117.264"/>
<polygon fill="grey" stroke="grey" points="832.494,-115.657 825.063,-108.104 826.162,-118.642 832.494,-115.657"/>
</g>
<!-- 7 -->
<g id="node8" class="node"><title>7</title>
<path fill="none" stroke="#567bd8" stroke-width="2" d="M399.25,-252C399.25,-252 302.75,-252 302.75,-252 296.75,-252 290.75,-246 290.75,-240 290.75,-240 290.75,-228 290.75,-228 290.75,-222 296.75,-216 302.75,-216 302.75,-216 399.25,-216 399.25,-216 405.25,-216 411.25,-222 411.25,-228 411.25,-228 411.25,-240 411.25,-240 411.25,-246 405.25,-252 399.25,-252"/>
<text text-anchor="middle" x="351" y="-231.5" font-family="sans" font-size="10.00">_r05a_collect_tsvs_fc</text>
</g>
<!-- 7&#45;&gt;4 -->
<g id="edge7" class="edge"><title>7&#45;&gt;4</title>
<path fill="none" stroke="grey" stroke-width="2" d="M361.382,-215.697C366.265,-207.559 372.187,-197.689 377.579,-188.701"/>
<polygon fill="grey" stroke="grey" points="380.594,-190.48 382.737,-180.104 374.591,-186.879 380.594,-190.48"/>
</g>
<!-- 8 -->
<g id="node9" class="node"><title>8</title>
<path fill="none" stroke="#d86656" stroke-width="2" d="M691.25,-252C691.25,-252 592.75,-252 592.75,-252 586.75,-252 580.75,-246 580.75,-240 580.75,-240 580.75,-228 580.75,-228 580.75,-222 586.75,-216 592.75,-216 592.75,-216 691.25,-216 691.25,-216 697.25,-216 703.25,-222 703.25,-228 703.25,-228 703.25,-240 703.25,-240 703.25,-246 697.25,-252 691.25,-252"/>
<text text-anchor="middle" x="642" y="-231.5" font-family="sans" font-size="10.00">_r05b_collect_tsvs_dc</text>
</g>
<!-- 8&#45;&gt;5 -->
<g id="edge8" class="edge"><title>8&#45;&gt;5</title>
<path fill="none" stroke="grey" stroke-width="2" d="M642,-215.697C642,-207.983 642,-198.712 642,-190.112"/>
<polygon fill="grey" stroke="grey" points="645.5,-190.104 642,-180.104 638.5,-190.104 645.5,-190.104"/>
</g>
<!-- 9 -->
<g id="node10" class="node"><title>9</title>
<path fill="none" stroke="#56a2d8" stroke-width="2" d="M979,-252C979,-252 881,-252 881,-252 875,-252 869,-246 869,-240 869,-240 869,-228 869,-228 869,-222 875,-216 881,-216 881,-216 979,-216 979,-216 985,-216 991,-222 991,-228 991,-228 991,-240 991,-240 991,-246 985,-252 979,-252"/>
<text text-anchor="middle" x="930" y="-231.5" font-family="sans" font-size="10.00">_r05c_collect_tsvs_cx</text>
</g>
<!-- 9&#45;&gt;6 -->
<g id="edge9" class="edge"><title>9&#45;&gt;6</title>
<path fill="none" stroke="grey" stroke-width="2" d="M910.225,-215.697C900.246,-206.965 887.989,-196.24 877.143,-186.75"/>
<polygon fill="grey" stroke="grey" points="879.378,-184.055 869.548,-180.104 874.769,-189.323 879.378,-184.055"/>
</g>
<!-- 10 -->
<g id="node11" class="node"><title>10</title>
<path fill="none" stroke="#d85656" stroke-width="2" d="M357,-324C357,-324 263,-324 263,-324 257,-324 251,-318 251,-312 251,-312 251,-300 251,-300 251,-294 257,-288 263,-288 263,-288 357,-288 357,-288 363,-288 369,-294 369,-300 369,-300 369,-312 369,-312 369,-318 363,-324 357,-324"/>
<text text-anchor="middle" x="310" y="-303.5" font-family="sans" font-size="10.00">_fc_k_reformat_circs</text>
</g>
<!-- 10&#45;&gt;7 -->
<g id="edge10" class="edge"><title>10&#45;&gt;7</title>
<path fill="none" stroke="grey" stroke-width="2" d="M320.135,-287.697C324.852,-279.644 330.562,-269.894 335.782,-260.982"/>
<polygon fill="grey" stroke="grey" points="338.948,-262.502 340.982,-252.104 332.908,-258.964 338.948,-262.502"/>
</g>
<!-- 11 -->
<g id="node12" class="node"><title>11</title>
<path fill="none" stroke="#d85656" stroke-width="2" d="M173,-324C173,-324 79,-324 79,-324 73,-324 67,-318 67,-312 67,-312 67,-300 67,-300 67,-294 73,-288 79,-288 79,-288 173,-288 173,-288 179,-288 185,-294 185,-300 185,-300 185,-312 185,-312 185,-318 179,-324 173,-324"/>
<text text-anchor="middle" x="126" y="-303.5" font-family="sans" font-size="10.00">_fc_k_reformat_circs</text>
</g>
<!-- 11&#45;&gt;7 -->
<g id="edge11" class="edge"><title>11&#45;&gt;7</title>
<path fill="none" stroke="grey" stroke-width="2" d="M180.753,-287.966C212.601,-278.057 252.92,-265.514 286.325,-255.121"/>
<polygon fill="grey" stroke="grey" points="287.492,-258.424 296.001,-252.111 285.413,-251.74 287.492,-258.424"/>
</g>
<!-- 12 -->
<g id="node13" class="node"><title>12</title>
<path fill="none" stroke="#70d856" stroke-width="2" d="M536.25,-324C536.25,-324 423.75,-324 423.75,-324 417.75,-324 411.75,-318 411.75,-312 411.75,-312 411.75,-300 411.75,-300 411.75,-294 417.75,-288 423.75,-288 423.75,-288 536.25,-288 536.25,-288 542.25,-288 548.25,-294 548.25,-300 548.25,-300 548.25,-312 548.25,-312 548.25,-318 542.25,-324 536.25,-324"/>
<text text-anchor="middle" x="480" y="-303.5" font-family="sans" font-size="10.00">_r04_count_reads_fastqs</text>
</g>
<!-- 12&#45;&gt;7 -->
<g id="edge12" class="edge"><title>12&#45;&gt;7</title>
<path fill="none" stroke="grey" stroke-width="2" d="M448.443,-287.876C431.342,-278.596 410.018,-267.025 391.681,-257.075"/>
<polygon fill="grey" stroke="grey" points="393.137,-253.883 382.678,-252.19 389.798,-260.035 393.137,-253.883"/>
</g>
<!-- 12&#45;&gt;8 -->
<g id="edge15" class="edge"><title>12&#45;&gt;8</title>
<path fill="none" stroke="grey" stroke-width="2" d="M519.63,-287.876C541.776,-278.307 569.563,-266.3 593.058,-256.148"/>
<polygon fill="grey" stroke="grey" points="594.708,-259.248 602.499,-252.068 591.931,-252.822 594.708,-259.248"/>
</g>
<!-- 12&#45;&gt;9 -->
<g id="edge17" class="edge"><title>12&#45;&gt;9</title>
<path fill="none" stroke="grey" stroke-width="2" d="M548.379,-289.62C551.288,-289.055 554.171,-288.512 557,-288 661.343,-269.097 783.124,-252.88 858.407,-243.528"/>
<polygon fill="grey" stroke="grey" points="859.219,-246.954 868.714,-242.255 858.36,-240.007 859.219,-246.954"/>
</g>
<!-- 13 -->
<g id="node14" class="node"><title>13</title>
<path fill="none" stroke="#d89556" stroke-width="2" d="M705.25,-324C705.25,-324 578.75,-324 578.75,-324 572.75,-324 566.75,-318 566.75,-312 566.75,-312 566.75,-300 566.75,-300 566.75,-294 572.75,-288 578.75,-288 578.75,-288 705.25,-288 705.25,-288 711.25,-288 717.25,-294 717.25,-300 717.25,-300 717.25,-312 717.25,-312 717.25,-318 711.25,-324 705.25,-324"/>
<text text-anchor="middle" x="642" y="-303.5" font-family="sans" font-size="10.00">_dcc_h_cleanup_annotation</text>
</g>
<!-- 13&#45;&gt;8 -->
<g id="edge13" class="edge"><title>13&#45;&gt;8</title>
<path fill="none" stroke="grey" stroke-width="2" d="M642,-287.697C642,-279.983 642,-270.712 642,-262.112"/>
<polygon fill="grey" stroke="grey" points="645.5,-262.104 642,-252.104 638.5,-262.104 645.5,-262.104"/>
</g>
<!-- 14 -->
<g id="node15" class="node"><title>14</title>
<path fill="none" stroke="#d89556" stroke-width="2" d="M875.25,-324C875.25,-324 748.75,-324 748.75,-324 742.75,-324 736.75,-318 736.75,-312 736.75,-312 736.75,-300 736.75,-300 736.75,-294 742.75,-288 748.75,-288 748.75,-288 875.25,-288 875.25,-288 881.25,-288 887.25,-294 887.25,-300 887.25,-300 887.25,-312 887.25,-312 887.25,-318 881.25,-324 875.25,-324"/>
<text text-anchor="middle" x="812" y="-303.5" font-family="sans" font-size="10.00">_dcc_h_cleanup_annotation</text>
</g>
<!-- 14&#45;&gt;8 -->
<g id="edge14" class="edge"><title>14&#45;&gt;8</title>
<path fill="none" stroke="grey" stroke-width="2" d="M770.413,-287.876C746.967,-278.222 717.496,-266.087 692.703,-255.878"/>
<polygon fill="grey" stroke="grey" points="694.031,-252.639 683.452,-252.068 691.366,-259.112 694.031,-252.639"/>
</g>
<!-- 15 -->
<g id="node16" class="node"><title>15</title>
<path fill="none" stroke="#afd856" stroke-width="2" d="M1172,-324C1172,-324 1066,-324 1066,-324 1060,-324 1054,-318 1054,-312 1054,-312 1054,-300 1054,-300 1054,-294 1060,-288 1066,-288 1066,-288 1172,-288 1172,-288 1178,-288 1184,-294 1184,-300 1184,-300 1184,-312 1184,-312 1184,-318 1178,-324 1172,-324"/>
<text text-anchor="middle" x="1119" y="-303.5" font-family="sans" font-size="10.00">_cx_f_cleanup_cx2anot</text>
</g>
<!-- 15&#45;&gt;9 -->
<g id="edge16" class="edge"><title>15&#45;&gt;9</title>
<path fill="none" stroke="grey" stroke-width="2" d="M1072.77,-287.876C1046.47,-278.137 1013.36,-265.872 985.642,-255.608"/>
<polygon fill="grey" stroke="grey" points="986.678,-252.259 976.084,-252.068 984.246,-258.824 986.678,-252.259"/>
</g>
<!-- 16 -->
<g id="node17" class="node"><title>16</title>
<path fill="none" stroke="#afd856" stroke-width="2" d="M1024,-324C1024,-324 918,-324 918,-324 912,-324 906,-318 906,-312 906,-312 906,-300 906,-300 906,-294 912,-288 918,-288 918,-288 1024,-288 1024,-288 1030,-288 1036,-294 1036,-300 1036,-300 1036,-312 1036,-312 1036,-318 1030,-324 1024,-324"/>
<text text-anchor="middle" x="971" y="-303.5" font-family="sans" font-size="10.00">_cx_f_cleanup_cx2anot</text>
</g>
<!-- 16&#45;&gt;9 -->
<g id="edge18" class="edge"><title>16&#45;&gt;9</title>
<path fill="none" stroke="grey" stroke-width="2" d="M960.865,-287.697C956.148,-279.644 950.438,-269.894 945.218,-260.982"/>
<polygon fill="grey" stroke="grey" points="948.092,-258.964 940.018,-252.104 942.052,-262.502 948.092,-258.964"/>
</g>
<!-- 17 -->
<g id="node18" class="node"><title>17</title>
<path fill="none" stroke="#d87d56" stroke-width="2" d="M351.25,-396C351.25,-396 214.75,-396 214.75,-396 208.75,-396 202.75,-390 202.75,-384 202.75,-384 202.75,-372 202.75,-372 202.75,-366 208.75,-360 214.75,-360 214.75,-360 351.25,-360 351.25,-360 357.25,-360 363.25,-366 363.25,-372 363.25,-372 363.25,-384 363.25,-384 363.25,-390 357.25,-396 351.25,-396"/>
<text text-anchor="middle" x="283" y="-375.5" font-family="sans" font-size="10.00">_fc_j_annotate_candidates_fc</text>
</g>
<!-- 17&#45;&gt;10 -->
<g id="edge19" class="edge"><title>17&#45;&gt;10</title>
<path fill="none" stroke="grey" stroke-width="2" d="M289.674,-359.697C292.715,-351.813 296.383,-342.304 299.761,-333.546"/>
<polygon fill="grey" stroke="grey" points="303.069,-334.694 303.403,-324.104 296.538,-332.175 303.069,-334.694"/>
</g>
<!-- 18 -->
<g id="node19" class="node"><title>18</title>
<path fill="none" stroke="#d87d56" stroke-width="2" d="M169.25,-396C169.25,-396 32.75,-396 32.75,-396 26.75,-396 20.75,-390 20.75,-384 20.75,-384 20.75,-372 20.75,-372 20.75,-366 26.75,-360 32.75,-360 32.75,-360 169.25,-360 169.25,-360 175.25,-360 181.25,-366 181.25,-372 181.25,-372 181.25,-384 181.25,-384 181.25,-390 175.25,-396 169.25,-396"/>
<text text-anchor="middle" x="101" y="-375.5" font-family="sans" font-size="10.00">_fc_j_annotate_candidates_fc</text>
</g>
<!-- 18&#45;&gt;11 -->
<g id="edge20" class="edge"><title>18&#45;&gt;11</title>
<path fill="none" stroke="grey" stroke-width="2" d="M107.18,-359.697C109.995,-351.813 113.391,-342.304 116.519,-333.546"/>
<polygon fill="grey" stroke="grey" points="119.824,-334.699 119.891,-324.104 113.232,-332.345 119.824,-334.699"/>
</g>
<!-- 19 -->
<g id="node20" class="node"><title>19</title>
<path fill="none" stroke="#59d856" stroke-width="2" d="M498.25,-396C498.25,-396 419.75,-396 419.75,-396 413.75,-396 407.75,-390 407.75,-384 407.75,-384 407.75,-372 407.75,-372 407.75,-366 413.75,-360 419.75,-360 419.75,-360 498.25,-360 498.25,-360 504.25,-360 510.25,-366 510.25,-372 510.25,-372 510.25,-384 510.25,-384 510.25,-390 504.25,-396 498.25,-396"/>
<text text-anchor="middle" x="459" y="-375.5" font-family="sans" font-size="10.00">_r03_create_infile</text>
</g>
<!-- 19&#45;&gt;12 -->
<g id="edge21" class="edge"><title>19&#45;&gt;12</title>
<path fill="none" stroke="grey" stroke-width="2" d="M464.191,-359.697C466.531,-351.898 469.347,-342.509 471.951,-333.829"/>
<polygon fill="grey" stroke="grey" points="475.348,-334.688 474.869,-324.104 468.643,-332.677 475.348,-334.688"/>
</g>
<!-- 20 -->
<g id="node21" class="node"><title>20</title>
<path fill="none" stroke="#56c1d8" stroke-width="2" d="M514,-468C514,-468 414,-468 414,-468 408,-468 402,-462 402,-456 402,-456 402,-444 402,-444 402,-438 408,-432 414,-432 414,-432 514,-432 514,-432 520,-432 526,-438 526,-444 526,-444 526,-456 526,-456 526,-462 520,-468 514,-468"/>
<text text-anchor="middle" x="464" y="-447.5" font-family="sans" font-size="10.00">_r02_create_fastq_list</text>
</g>
<!-- 20&#45;&gt;12 -->
<g id="edge22" class="edge"><title>20&#45;&gt;12</title>
<path fill="none" stroke="grey" stroke-width="2" d="M489.38,-431.955C500.715,-422.786 512.878,-410.4 519,-396 525.26,-381.275 523.99,-375.202 519,-360 515.686,-349.906 509.633,-340.151 503.268,-331.821"/>
<polygon fill="grey" stroke="grey" points="505.925,-329.54 496.89,-324.007 500.502,-333.967 505.925,-329.54"/>
</g>
<!-- 20&#45;&gt;19 -->
<g id="edge29" class="edge"><title>20&#45;&gt;19</title>
<path fill="none" stroke="grey" stroke-width="2" d="M462.764,-431.697C462.213,-423.983 461.551,-414.712 460.937,-406.112"/>
<polygon fill="grey" stroke="grey" points="464.425,-405.83 460.222,-396.104 457.443,-406.328 464.425,-405.83"/>
</g>
<!-- 21 -->
<g id="node22" class="node"><title>21</title>
<path fill="none" stroke="#56d87b" stroke-width="2" d="M702.25,-396C702.25,-396 581.75,-396 581.75,-396 575.75,-396 569.75,-390 569.75,-384 569.75,-384 569.75,-372 569.75,-372 569.75,-366 575.75,-360 581.75,-360 581.75,-360 702.25,-360 702.25,-360 708.25,-360 714.25,-366 714.25,-372 714.25,-372 714.25,-384 714.25,-384 714.25,-390 708.25,-396 702.25,-396"/>
<text text-anchor="middle" x="642" y="-375.5" font-family="sans" font-size="10.00">_dcc_g_annotate_cleanfile</text>
</g>
<!-- 21&#45;&gt;13 -->
<g id="edge23" class="edge"><title>21&#45;&gt;13</title>
<path fill="none" stroke="grey" stroke-width="2" d="M642,-359.697C642,-351.983 642,-342.712 642,-334.112"/>
<polygon fill="grey" stroke="grey" points="645.5,-334.104 642,-324.104 638.5,-334.104 645.5,-334.104"/>
</g>
<!-- 22 -->
<g id="node23" class="node"><title>22</title>
<path fill="none" stroke="#56d87b" stroke-width="2" d="M879.25,-396C879.25,-396 758.75,-396 758.75,-396 752.75,-396 746.75,-390 746.75,-384 746.75,-384 746.75,-372 746.75,-372 746.75,-366 752.75,-360 758.75,-360 758.75,-360 879.25,-360 879.25,-360 885.25,-360 891.25,-366 891.25,-372 891.25,-372 891.25,-384 891.25,-384 891.25,-390 885.25,-396 879.25,-396"/>
<text text-anchor="middle" x="819" y="-375.5" font-family="sans" font-size="10.00">_dcc_g_annotate_cleanfile</text>
</g>
<!-- 22&#45;&gt;14 -->
<g id="edge24" class="edge"><title>22&#45;&gt;14</title>
<path fill="none" stroke="grey" stroke-width="2" d="M817.27,-359.697C816.498,-351.983 815.571,-342.712 814.711,-334.112"/>
<polygon fill="grey" stroke="grey" points="818.188,-333.706 813.71,-324.104 811.223,-334.403 818.188,-333.706"/>
</g>
<!-- 23 -->
<g id="node24" class="node"><title>23</title>
<path fill="none" stroke="#d86e56" stroke-width="2" d="M1169.25,-396C1169.25,-396 1072.75,-396 1072.75,-396 1066.75,-396 1060.75,-390 1060.75,-384 1060.75,-384 1060.75,-372 1060.75,-372 1060.75,-366 1066.75,-360 1072.75,-360 1072.75,-360 1169.25,-360 1169.25,-360 1175.25,-360 1181.25,-366 1181.25,-372 1181.25,-372 1181.25,-384 1181.25,-384 1181.25,-390 1175.25,-396 1169.25,-396"/>
<text text-anchor="middle" x="1121" y="-375.5" font-family="sans" font-size="10.00">_cx_e_annotate_circs</text>
</g>
<!-- 23&#45;&gt;15 -->
<g id="edge25" class="edge"><title>23&#45;&gt;15</title>
<path fill="none" stroke="grey" stroke-width="2" d="M1120.51,-359.697C1120.29,-351.983 1120.02,-342.712 1119.77,-334.112"/>
<polygon fill="grey" stroke="grey" points="1123.27,-334 1119.49,-324.104 1116.28,-334.2 1123.27,-334"/>
</g>
<!-- 24 -->
<g id="node25" class="node"><title>24</title>
<path fill="none" stroke="#d86e56" stroke-width="2" d="M1026.25,-396C1026.25,-396 929.75,-396 929.75,-396 923.75,-396 917.75,-390 917.75,-384 917.75,-384 917.75,-372 917.75,-372 917.75,-366 923.75,-360 929.75,-360 929.75,-360 1026.25,-360 1026.25,-360 1032.25,-360 1038.25,-366 1038.25,-372 1038.25,-372 1038.25,-384 1038.25,-384 1038.25,-390 1032.25,-396 1026.25,-396"/>
<text text-anchor="middle" x="978" y="-375.5" font-family="sans" font-size="10.00">_cx_e_annotate_circs</text>
</g>
<!-- 24&#45;&gt;16 -->
<g id="edge26" class="edge"><title>24&#45;&gt;16</title>
<path fill="none" stroke="grey" stroke-width="2" d="M976.27,-359.697C975.498,-351.983 974.571,-342.712 973.711,-334.112"/>
<polygon fill="grey" stroke="grey" points="977.188,-333.706 972.71,-324.104 970.223,-334.403 977.188,-333.706"/>
</g>
<!-- 25 -->
<g id="node26" class="node"><title>25</title>
<path fill="none" stroke="#568ad8" stroke-width="2" d="M284.25,-468C284.25,-468 227.75,-468 227.75,-468 221.75,-468 215.75,-462 215.75,-456 215.75,-456 215.75,-444 215.75,-444 215.75,-438 221.75,-432 227.75,-432 227.75,-432 284.25,-432 284.25,-432 290.25,-432 296.25,-438 296.25,-444 296.25,-444 296.25,-456 296.25,-456 296.25,-462 290.25,-468 284.25,-468"/>
<text text-anchor="middle" x="256" y="-447.5" font-family="sans" font-size="10.00">_fc_i_filter_fc</text>
</g>
<!-- 25&#45;&gt;17 -->
<g id="edge27" class="edge"><title>25&#45;&gt;17</title>
<path fill="none" stroke="grey" stroke-width="2" d="M262.674,-431.697C265.715,-423.813 269.383,-414.304 272.761,-405.546"/>
<polygon fill="grey" stroke="grey" points="276.069,-406.694 276.403,-396.104 269.538,-404.175 276.069,-406.694"/>
</g>
<!-- 26 -->
<g id="node27" class="node"><title>26</title>
<path fill="none" stroke="#568ad8" stroke-width="2" d="M123.25,-468C123.25,-468 66.75,-468 66.75,-468 60.75,-468 54.75,-462 54.75,-456 54.75,-456 54.75,-444 54.75,-444 54.75,-438 60.75,-432 66.75,-432 66.75,-432 123.25,-432 123.25,-432 129.25,-432 135.25,-438 135.25,-444 135.25,-444 135.25,-456 135.25,-456 135.25,-462 129.25,-468 123.25,-468"/>
<text text-anchor="middle" x="95" y="-447.5" font-family="sans" font-size="10.00">_fc_i_filter_fc</text>
</g>
<!-- 26&#45;&gt;18 -->
<g id="edge28" class="edge"><title>26&#45;&gt;18</title>
<path fill="none" stroke="grey" stroke-width="2" d="M96.4831,-431.697C97.1443,-423.983 97.9389,-414.712 98.6761,-406.112"/>
<polygon fill="grey" stroke="grey" points="102.167,-406.367 99.5339,-396.104 95.1926,-405.769 102.167,-406.367"/>
</g>
<!-- 27 -->
<g id="node28" class="node"><title>27</title>
<path fill="none" stroke="#56d873" stroke-width="2" d="M518.25,-540C518.25,-540 409.75,-540 409.75,-540 403.75,-540 397.75,-534 397.75,-528 397.75,-528 397.75,-516 397.75,-516 397.75,-510 403.75,-504 409.75,-504 409.75,-504 518.25,-504 518.25,-504 524.25,-504 530.25,-510 530.25,-516 530.25,-516 530.25,-528 530.25,-528 530.25,-534 524.25,-540 518.25,-540"/>
<text text-anchor="middle" x="464" y="-519.5" font-family="sans" font-size="10.00">_r01_prepare_hg38_dirs</text>
</g>
<!-- 27&#45;&gt;20 -->
<g id="edge30" class="edge"><title>27&#45;&gt;20</title>
<path fill="none" stroke="grey" stroke-width="2" d="M464,-503.697C464,-495.983 464,-486.712 464,-478.112"/>
<polygon fill="grey" stroke="grey" points="467.5,-478.104 464,-468.104 460.5,-478.104 467.5,-478.104"/>
</g>
<!-- 28 -->
<g id="node29" class="node"><title>28</title>
<path fill="none" stroke="#d8cb56" stroke-width="2" d="M676,-468C676,-468 572,-468 572,-468 566,-468 560,-462 560,-456 560,-456 560,-444 560,-444 560,-438 566,-432 572,-432 572,-432 676,-432 676,-432 682,-432 688,-438 688,-444 688,-444 688,-456 688,-456 688,-462 682,-468 676,-468"/>
<text text-anchor="middle" x="624" y="-447.5" font-family="sans" font-size="10.00">_dcc_f_cleanup_circfile</text>
</g>
<!-- 28&#45;&gt;21 -->
<g id="edge31" class="edge"><title>28&#45;&gt;21</title>
<path fill="none" stroke="grey" stroke-width="2" d="M628.449,-431.697C630.455,-423.898 632.869,-414.509 635.101,-405.829"/>
<polygon fill="grey" stroke="grey" points="638.501,-406.661 637.602,-396.104 631.722,-404.918 638.501,-406.661"/>
</g>
<!-- 29 -->
<g id="node30" class="node"><title>29</title>
<path fill="none" stroke="#d8cb56" stroke-width="2" d="M928,-468C928,-468 824,-468 824,-468 818,-468 812,-462 812,-456 812,-456 812,-444 812,-444 812,-438 818,-432 824,-432 824,-432 928,-432 928,-432 934,-432 940,-438 940,-444 940,-444 940,-456 940,-456 940,-462 934,-468 928,-468"/>
<text text-anchor="middle" x="876" y="-447.5" font-family="sans" font-size="10.00">_dcc_f_cleanup_circfile</text>
</g>
<!-- 29&#45;&gt;22 -->
<g id="edge32" class="edge"><title>29&#45;&gt;22</title>
<path fill="none" stroke="grey" stroke-width="2" d="M861.91,-431.697C855.077,-423.305 846.743,-413.07 839.244,-403.861"/>
<polygon fill="grey" stroke="grey" points="841.956,-401.649 832.928,-396.104 836.528,-406.069 841.956,-401.649"/>
</g>
<!-- 30 -->
<g id="node31" class="node"><title>30</title>
<path fill="none" stroke="#56d8d8" stroke-width="2" d="M1186,-468C1186,-468 1122,-468 1122,-468 1116,-468 1110,-462 1110,-456 1110,-456 1110,-444 1110,-444 1110,-438 1116,-432 1122,-432 1122,-432 1186,-432 1186,-432 1192,-432 1198,-438 1198,-444 1198,-444 1198,-456 1198,-456 1198,-462 1192,-468 1186,-468"/>
<text text-anchor="middle" x="1154" y="-447.5" font-family="sans" font-size="10.00">_cx_d_run_cx2</text>
</g>
<!-- 30&#45;&gt;23 -->
<g id="edge33" class="edge"><title>30&#45;&gt;23</title>
<path fill="none" stroke="grey" stroke-width="2" d="M1145.84,-431.697C1142.09,-423.728 1137.55,-414.1 1133.38,-405.264"/>
<polygon fill="grey" stroke="grey" points="1136.49,-403.657 1129.06,-396.104 1130.16,-406.642 1136.49,-403.657"/>
</g>
<!-- 31 -->
<g id="node32" class="node"><title>31</title>
<path fill="none" stroke="#56d8d8" stroke-width="2" d="M1045,-468C1045,-468 981,-468 981,-468 975,-468 969,-462 969,-456 969,-456 969,-444 969,-444 969,-438 975,-432 981,-432 981,-432 1045,-432 1045,-432 1051,-432 1057,-438 1057,-444 1057,-444 1057,-456 1057,-456 1057,-462 1051,-468 1045,-468"/>
<text text-anchor="middle" x="1013" y="-447.5" font-family="sans" font-size="10.00">_cx_d_run_cx2</text>
</g>
<!-- 31&#45;&gt;24 -->
<g id="edge34" class="edge"><title>31&#45;&gt;24</title>
<path fill="none" stroke="grey" stroke-width="2" d="M1004.35,-431.697C1000.36,-423.728 995.55,-414.1 991.132,-405.264"/>
<polygon fill="grey" stroke="grey" points="994.155,-403.483 986.552,-396.104 987.894,-406.614 994.155,-403.483"/>
</g>
<!-- 32 -->
<g id="node33" class="node"><title>32</title>
<path fill="none" stroke="#ced856" stroke-width="2" d="M287.25,-540C287.25,-540 196.75,-540 196.75,-540 190.75,-540 184.75,-534 184.75,-528 184.75,-528 184.75,-516 184.75,-516 184.75,-510 190.75,-504 196.75,-504 196.75,-504 287.25,-504 287.25,-504 293.25,-504 299.25,-510 299.25,-516 299.25,-516 299.25,-528 299.25,-528 299.25,-534 293.25,-540 287.25,-540"/>
<text text-anchor="middle" x="242" y="-519.5" font-family="sans" font-size="10.00">_fc_h_align_anchors</text>
</g>
<!-- 32&#45;&gt;25 -->
<g id="edge35" class="edge"><title>32&#45;&gt;25</title>
<path fill="none" stroke="grey" stroke-width="2" d="M245.461,-503.697C247.003,-495.983 248.858,-486.712 250.578,-478.112"/>
<polygon fill="grey" stroke="grey" points="254.05,-478.597 252.579,-468.104 247.186,-477.224 254.05,-478.597"/>
</g>
<!-- 33 -->
<g id="node34" class="node"><title>33</title>
<path fill="none" stroke="#ced856" stroke-width="2" d="M140.25,-540C140.25,-540 49.75,-540 49.75,-540 43.75,-540 37.75,-534 37.75,-528 37.75,-528 37.75,-516 37.75,-516 37.75,-510 43.75,-504 49.75,-504 49.75,-504 140.25,-504 140.25,-504 146.25,-504 152.25,-510 152.25,-516 152.25,-516 152.25,-528 152.25,-528 152.25,-534 146.25,-540 140.25,-540"/>
<text text-anchor="middle" x="95" y="-519.5" font-family="sans" font-size="10.00">_fc_h_align_anchors</text>
</g>
<!-- 33&#45;&gt;26 -->
<g id="edge36" class="edge"><title>33&#45;&gt;26</title>
<path fill="none" stroke="grey" stroke-width="2" d="M95,-503.697C95,-495.983 95,-486.712 95,-478.112"/>
<polygon fill="grey" stroke="grey" points="98.5001,-478.104 95,-468.104 91.5001,-478.104 98.5001,-478.104"/>
</g>
<!-- 34 -->
<g id="node35" class="node"><title>34</title>
<path fill="none" stroke="#d88d56" stroke-width="2" d="M664,-540C664,-540 572,-540 572,-540 566,-540 560,-534 560,-528 560,-528 560,-516 560,-516 560,-510 566,-504 572,-504 572,-504 664,-504 664,-504 670,-504 676,-510 676,-516 676,-516 676,-528 676,-528 676,-534 670,-540 664,-540"/>
<text text-anchor="middle" x="618" y="-519.5" font-family="sans" font-size="10.00">_dcc_e_execute_dcc</text>
</g>
<!-- 34&#45;&gt;28 -->
<g id="edge37" class="edge"><title>34&#45;&gt;28</title>
<path fill="none" stroke="grey" stroke-width="2" d="M619.483,-503.697C620.144,-495.983 620.939,-486.712 621.676,-478.112"/>
<polygon fill="grey" stroke="grey" points="625.167,-478.367 622.534,-468.104 618.193,-477.769 625.167,-478.367"/>
</g>
<!-- 35 -->
<g id="node36" class="node"><title>35</title>
<path fill="none" stroke="#d88d56" stroke-width="2" d="M935,-540C935,-540 843,-540 843,-540 837,-540 831,-534 831,-528 831,-528 831,-516 831,-516 831,-510 837,-504 843,-504 843,-504 935,-504 935,-504 941,-504 947,-510 947,-516 947,-516 947,-528 947,-528 947,-534 941,-540 935,-540"/>
<text text-anchor="middle" x="889" y="-519.5" font-family="sans" font-size="10.00">_dcc_e_execute_dcc</text>
</g>
<!-- 35&#45;&gt;29 -->
<g id="edge38" class="edge"><title>35&#45;&gt;29</title>
<path fill="none" stroke="grey" stroke-width="2" d="M885.787,-503.697C884.354,-495.983 882.632,-486.712 881.035,-478.112"/>
<polygon fill="grey" stroke="grey" points="884.444,-477.297 879.177,-468.104 877.561,-478.575 884.444,-477.297"/>
</g>
<!-- 36 -->
<g id="node37" class="node"><title>36</title>
<path fill="none" stroke="#56d88a" stroke-width="2" d="M1459,-540C1459,-540 1337,-540 1337,-540 1331,-540 1325,-534 1325,-528 1325,-528 1325,-516 1325,-516 1325,-510 1331,-504 1337,-504 1337,-504 1459,-504 1459,-504 1465,-504 1471,-510 1471,-516 1471,-516 1471,-528 1471,-528 1471,-534 1465,-540 1459,-540"/>
<text text-anchor="middle" x="1398" y="-519.5" font-family="sans" font-size="10.00">_cx_c_align_primary_STAR</text>
</g>
<!-- 36&#45;&gt;30 -->
<g id="edge39" class="edge"><title>36&#45;&gt;30</title>
<path fill="none" stroke="grey" stroke-width="2" d="M1338.62,-503.966C1298.87,-492.561 1246.94,-477.664 1208.29,-466.575"/>
<polygon fill="grey" stroke="grey" points="1208.84,-463.092 1198.26,-463.699 1206.91,-469.82 1208.84,-463.092"/>
</g>
<!-- 37 -->
<g id="node38" class="node"><title>37</title>
<path fill="none" stroke="#56d88a" stroke-width="2" d="M1230,-540C1230,-540 1108,-540 1108,-540 1102,-540 1096,-534 1096,-528 1096,-528 1096,-516 1096,-516 1096,-510 1102,-504 1108,-504 1108,-504 1230,-504 1230,-504 1236,-504 1242,-510 1242,-516 1242,-516 1242,-528 1242,-528 1242,-534 1236,-540 1230,-540"/>
<text text-anchor="middle" x="1169" y="-519.5" font-family="sans" font-size="10.00">_cx_c_align_primary_STAR</text>
</g>
<!-- 37&#45;&gt;31 -->
<g id="edge40" class="edge"><title>37&#45;&gt;31</title>
<path fill="none" stroke="grey" stroke-width="2" d="M1130.84,-503.876C1109.61,-494.349 1082.99,-482.407 1060.43,-472.283"/>
<polygon fill="grey" stroke="grey" points="1061.59,-468.969 1051.04,-468.068 1058.73,-475.356 1061.59,-468.969"/>
</g>
<!-- 38 -->
<g id="node39" class="node"><title>38</title>
<path fill="none" stroke="#56d8a2" stroke-width="2" d="M260.25,-612C260.25,-612 177.75,-612 177.75,-612 171.75,-612 165.75,-606 165.75,-600 165.75,-600 165.75,-588 165.75,-588 165.75,-582 171.75,-576 177.75,-576 177.75,-576 260.25,-576 260.25,-576 266.25,-576 272.25,-582 272.25,-588 272.25,-588 272.25,-600 272.25,-600 272.25,-606 266.25,-612 260.25,-612"/>
<text text-anchor="middle" x="219" y="-591.5" font-family="sans" font-size="10.00">_fc_g_get_anchors</text>
</g>
<!-- 38&#45;&gt;32 -->
<g id="edge41" class="edge"><title>38&#45;&gt;32</title>
<path fill="none" stroke="grey" stroke-width="2" d="M224.685,-575.697C227.248,-567.898 230.333,-558.509 233.185,-549.829"/>
<polygon fill="grey" stroke="grey" points="236.584,-550.697 236.38,-540.104 229.933,-548.512 236.584,-550.697"/>
</g>
<!-- 39 -->
<g id="node40" class="node"><title>39</title>
<path fill="none" stroke="#56d8a2" stroke-width="2" d="M119.25,-612C119.25,-612 36.75,-612 36.75,-612 30.75,-612 24.75,-606 24.75,-600 24.75,-600 24.75,-588 24.75,-588 24.75,-582 30.75,-576 36.75,-576 36.75,-576 119.25,-576 119.25,-576 125.25,-576 131.25,-582 131.25,-588 131.25,-588 131.25,-600 131.25,-600 131.25,-606 125.25,-612 119.25,-612"/>
<text text-anchor="middle" x="78" y="-591.5" font-family="sans" font-size="10.00">_fc_g_get_anchors</text>
</g>
<!-- 39&#45;&gt;33 -->
<g id="edge42" class="edge"><title>39&#45;&gt;33</title>
<path fill="none" stroke="grey" stroke-width="2" d="M82.2022,-575.697C84.0962,-567.898 86.3765,-558.509 88.4843,-549.829"/>
<polygon fill="grey" stroke="grey" points="91.8872,-550.648 90.8461,-540.104 85.0849,-548.996 91.8872,-550.648"/>
</g>
<!-- 40 -->
<g id="node41" class="node"><title>40</title>
<path fill="none" stroke="#d8b456" stroke-width="2" d="M401,-612C401,-612 303,-612 303,-612 297,-612 291,-606 291,-600 291,-600 291,-588 291,-588 291,-582 297,-576 303,-576 303,-576 401,-576 401,-576 407,-576 413,-582 413,-588 413,-588 413,-600 413,-600 413,-606 407,-612 401,-612"/>
<text text-anchor="middle" x="352" y="-591.5" font-family="sans" font-size="10.00">_dcc_d2_align_mate2</text>
</g>
<!-- 40&#45;&gt;34 -->
<g id="edge43" class="edge"><title>40&#45;&gt;34</title>
<path fill="none" stroke="grey" stroke-width="2" d="M413.026,-576.941C453.922,-566.179 507.81,-551.997 550.068,-540.877"/>
<polygon fill="grey" stroke="grey" points="551.215,-544.194 559.995,-538.264 549.433,-537.425 551.215,-544.194"/>
</g>
<!-- 41 -->
<g id="node42" class="node"><title>41</title>
<path fill="none" stroke="#61d856" stroke-width="2" d="M541,-612C541,-612 443,-612 443,-612 437,-612 431,-606 431,-600 431,-600 431,-588 431,-588 431,-582 437,-576 443,-576 443,-576 541,-576 541,-576 547,-576 553,-582 553,-588 553,-588 553,-600 553,-600 553,-606 547,-612 541,-612"/>
<text text-anchor="middle" x="492" y="-591.5" font-family="sans" font-size="10.00">_dcc_d1_align_mate1</text>
</g>
<!-- 41&#45;&gt;34 -->
<g id="edge44" class="edge"><title>41&#45;&gt;34</title>
<path fill="none" stroke="grey" stroke-width="2" d="M522.823,-575.876C539.45,-566.639 560.165,-555.131 578.019,-545.212"/>
<polygon fill="grey" stroke="grey" points="580.017,-548.106 587.058,-540.19 576.617,-541.987 580.017,-548.106"/>
</g>
<!-- 42 -->
<g id="node43" class="node"><title>42</title>
<path fill="none" stroke="#56d89a" stroke-width="2" d="M737,-612C737,-612 583,-612 583,-612 577,-612 571,-606 571,-600 571,-600 571,-588 571,-588 571,-582 577,-576 583,-576 583,-576 737,-576 737,-576 743,-576 749,-582 749,-588 749,-588 749,-600 749,-600 749,-606 743,-612 737,-612"/>
<text text-anchor="middle" x="660" y="-591.5" font-family="sans" font-size="10.00">_dcc_c_align_primary_STAR_DCC</text>
</g>
<!-- 42&#45;&gt;34 -->
<g id="edge45" class="edge"><title>42&#45;&gt;34</title>
<path fill="none" stroke="grey" stroke-width="2" d="M649.618,-575.697C644.735,-567.559 638.813,-557.689 633.421,-548.701"/>
<polygon fill="grey" stroke="grey" points="636.409,-546.879 628.263,-540.104 630.406,-550.48 636.409,-546.879"/>
</g>
<!-- 43 -->
<g id="node44" class="node"><title>43</title>
<path fill="none" stroke="#56d89a" stroke-width="2" d="M933,-612C933,-612 779,-612 779,-612 773,-612 767,-606 767,-600 767,-600 767,-588 767,-588 767,-582 773,-576 779,-576 779,-576 933,-576 933,-576 939,-576 945,-582 945,-588 945,-588 945,-600 945,-600 945,-606 939,-612 933,-612"/>
<text text-anchor="middle" x="856" y="-591.5" font-family="sans" font-size="10.00">_dcc_c_align_primary_STAR_DCC</text>
</g>
<!-- 43&#45;&gt;35 -->
<g id="edge46" class="edge"><title>43&#45;&gt;35</title>
<path fill="none" stroke="grey" stroke-width="2" d="M864.157,-575.697C867.914,-567.728 872.453,-558.1 876.618,-549.264"/>
<polygon fill="grey" stroke="grey" points="879.838,-550.642 880.937,-540.104 873.506,-547.657 879.838,-550.642"/>
</g>
<!-- 44 -->
<g id="node45" class="node"><title>44</title>
<path fill="none" stroke="#61d856" stroke-width="2" d="M1073,-612C1073,-612 975,-612 975,-612 969,-612 963,-606 963,-600 963,-600 963,-588 963,-588 963,-582 969,-576 975,-576 975,-576 1073,-576 1073,-576 1079,-576 1085,-582 1085,-588 1085,-588 1085,-600 1085,-600 1085,-606 1079,-612 1073,-612"/>
<text text-anchor="middle" x="1024" y="-591.5" font-family="sans" font-size="10.00">_dcc_d1_align_mate1</text>
</g>
<!-- 44&#45;&gt;35 -->
<g id="edge47" class="edge"><title>44&#45;&gt;35</title>
<path fill="none" stroke="grey" stroke-width="2" d="M990.975,-575.876C972.915,-566.512 950.355,-554.814 931.049,-544.803"/>
<polygon fill="grey" stroke="grey" points="932.64,-541.686 922.152,-540.19 929.418,-547.9 932.64,-541.686"/>
</g>
<!-- 45 -->
<g id="node46" class="node"><title>45</title>
<path fill="none" stroke="#d8b456" stroke-width="2" d="M1213,-612C1213,-612 1115,-612 1115,-612 1109,-612 1103,-606 1103,-600 1103,-600 1103,-588 1103,-588 1103,-582 1109,-576 1115,-576 1115,-576 1213,-576 1213,-576 1219,-576 1225,-582 1225,-588 1225,-588 1225,-600 1225,-600 1225,-606 1219,-612 1213,-612"/>
<text text-anchor="middle" x="1164" y="-591.5" font-family="sans" font-size="10.00">_dcc_d2_align_mate2</text>
</g>
<!-- 45&#45;&gt;35 -->
<g id="edge48" class="edge"><title>45&#45;&gt;35</title>
<path fill="none" stroke="grey" stroke-width="2" d="M1102.97,-577.465C1059.72,-566.455 1001.67,-551.679 956.943,-540.295"/>
<polygon fill="grey" stroke="grey" points="957.591,-536.848 947.037,-537.773 955.864,-543.632 957.591,-536.848"/>
</g>
<!-- 46 -->
<g id="node47" class="node"><title>46</title>
<path fill="none" stroke="#88d856" stroke-width="2" d="M1475.25,-612C1475.25,-612 1386.75,-612 1386.75,-612 1380.75,-612 1374.75,-606 1374.75,-600 1374.75,-600 1374.75,-588 1374.75,-588 1374.75,-582 1380.75,-576 1386.75,-576 1386.75,-576 1475.25,-576 1475.25,-576 1481.25,-576 1487.25,-582 1487.25,-588 1487.25,-588 1487.25,-600 1487.25,-600 1487.25,-606 1481.25,-612 1475.25,-612"/>
<text text-anchor="middle" x="1431" y="-597" font-family="sans" font-size="10.00">_cx_b_prepare_files</text>
<text text-anchor="middle" x="1431" y="-586" font-family="sans" font-size="10.00">name: SRR3184285</text>
</g>
<!-- 46&#45;&gt;36 -->
<g id="edge49" class="edge"><title>46&#45;&gt;36</title>
<path fill="none" stroke="grey" stroke-width="2" d="M1422.84,-575.697C1419.09,-567.728 1414.55,-558.1 1410.38,-549.264"/>
<polygon fill="grey" stroke="grey" points="1413.49,-547.657 1406.06,-540.104 1407.16,-550.642 1413.49,-547.657"/>
</g>
<!-- 47 -->
<g id="node48" class="node"><title>47</title>
<path fill="none" stroke="#88d856" stroke-width="2" d="M1344.25,-612C1344.25,-612 1255.75,-612 1255.75,-612 1249.75,-612 1243.75,-606 1243.75,-600 1243.75,-600 1243.75,-588 1243.75,-588 1243.75,-582 1249.75,-576 1255.75,-576 1255.75,-576 1344.25,-576 1344.25,-576 1350.25,-576 1356.25,-582 1356.25,-588 1356.25,-588 1356.25,-600 1356.25,-600 1356.25,-606 1350.25,-612 1344.25,-612"/>
<text text-anchor="middle" x="1300" y="-597" font-family="sans" font-size="10.00">_cx_b_prepare_files</text>
<text text-anchor="middle" x="1300" y="-586" font-family="sans" font-size="10.00">name: SRR3184300</text>
</g>
<!-- 47&#45;&gt;37 -->
<g id="edge50" class="edge"><title>47&#45;&gt;37</title>
<path fill="none" stroke="grey" stroke-width="2" d="M1267.95,-575.876C1250.51,-566.554 1228.73,-554.919 1210.06,-544.939"/>
<polygon fill="grey" stroke="grey" points="1211.64,-541.816 1201.17,-540.19 1208.34,-547.99 1211.64,-541.816"/>
</g>
<!-- 48 -->
<g id="node49" class="node"><title>48</title>
<path fill="none" stroke="#a7d856" stroke-width="2" d="M286,-684C286,-684 170,-684 170,-684 164,-684 158,-678 158,-672 158,-672 158,-660 158,-660 158,-654 164,-648 170,-648 170,-648 286,-648 286,-648 292,-648 298,-654 298,-660 298,-660 298,-672 298,-672 298,-678 292,-684 286,-684"/>
<text text-anchor="middle" x="228" y="-663.5" font-family="sans" font-size="10.00">_fc_f_prepare_remapping</text>
</g>
<!-- 48&#45;&gt;38 -->
<g id="edge51" class="edge"><title>48&#45;&gt;38</title>
<path fill="none" stroke="grey" stroke-width="2" d="M225.775,-647.697C224.783,-639.983 223.592,-630.712 222.486,-622.112"/>
<polygon fill="grey" stroke="grey" points="225.946,-621.576 221.199,-612.104 219.003,-622.469 225.946,-621.576"/>
</g>
<!-- 49 -->
<g id="node50" class="node"><title>49</title>
<path fill="none" stroke="#a7d856" stroke-width="2" d="M128,-684C128,-684 12,-684 12,-684 6,-684 0,-678 0,-672 0,-672 0,-660 0,-660 0,-654 6,-648 12,-648 12,-648 128,-648 128,-648 134,-648 140,-654 140,-660 140,-660 140,-672 140,-672 140,-678 134,-684 128,-684"/>
<text text-anchor="middle" x="70" y="-663.5" font-family="sans" font-size="10.00">_fc_f_prepare_remapping</text>
</g>
<!-- 49&#45;&gt;39 -->
<g id="edge52" class="edge"><title>49&#45;&gt;39</title>
<path fill="none" stroke="grey" stroke-width="2" d="M71.9775,-647.697C72.8591,-639.983 73.9186,-630.712 74.9014,-622.112"/>
<polygon fill="grey" stroke="grey" points="78.387,-622.437 76.0452,-612.104 71.4323,-621.642 78.387,-622.437"/>
</g>
<!-- 50 -->
<g id="node51" class="node"><title>50</title>
<path fill="none" stroke="#5663d8" stroke-width="2" d="M550,-684C550,-684 434,-684 434,-684 428,-684 422,-678 422,-672 422,-672 422,-660 422,-660 422,-654 428,-648 434,-648 434,-648 550,-648 550,-648 556,-648 562,-654 562,-660 562,-660 562,-672 562,-672 562,-678 556,-684 550,-684"/>
<text text-anchor="middle" x="492" y="-669" font-family="sans" font-size="10.00">_dcc_b_prepare_files_dcc</text>
<text text-anchor="middle" x="492" y="-658" font-family="sans" font-size="10.00">name: SRR3184285</text>
</g>
<!-- 50&#45;&gt;40 -->
<g id="edge53" class="edge"><title>50&#45;&gt;40</title>
<path fill="none" stroke="grey" stroke-width="2" d="M457.752,-647.876C438.939,-638.469 415.415,-626.708 395.334,-616.667"/>
<polygon fill="grey" stroke="grey" points="396.889,-613.531 386.38,-612.19 393.759,-619.792 396.889,-613.531"/>
</g>
<!-- 50&#45;&gt;41 -->
<g id="edge54" class="edge"><title>50&#45;&gt;41</title>
<path fill="none" stroke="grey" stroke-width="2" d="M492,-647.697C492,-639.983 492,-630.712 492,-622.112"/>
<polygon fill="grey" stroke="grey" points="495.5,-622.104 492,-612.104 488.5,-622.104 495.5,-622.104"/>
</g>
<!-- 50&#45;&gt;42 -->
<g id="edge55" class="edge"><title>50&#45;&gt;42</title>
<path fill="none" stroke="grey" stroke-width="2" d="M533.097,-647.876C556.166,-638.264 585.136,-626.193 609.57,-616.013"/>
<polygon fill="grey" stroke="grey" points="611.151,-619.145 619.036,-612.068 608.459,-612.684 611.151,-619.145"/>
</g>
<!-- 51 -->
<g id="node52" class="node"><title>51</title>
<path fill="none" stroke="#5663d8" stroke-width="2" d="M1082,-684C1082,-684 966,-684 966,-684 960,-684 954,-678 954,-672 954,-672 954,-660 954,-660 954,-654 960,-648 966,-648 966,-648 1082,-648 1082,-648 1088,-648 1094,-654 1094,-660 1094,-660 1094,-672 1094,-672 1094,-678 1088,-684 1082,-684"/>
<text text-anchor="middle" x="1024" y="-669" font-family="sans" font-size="10.00">_dcc_b_prepare_files_dcc</text>
<text text-anchor="middle" x="1024" y="-658" font-family="sans" font-size="10.00">name: SRR3184300</text>
</g>
<!-- 51&#45;&gt;43 -->
<g id="edge56" class="edge"><title>51&#45;&gt;43</title>
<path fill="none" stroke="grey" stroke-width="2" d="M982.903,-647.876C959.834,-638.264 930.864,-626.193 906.43,-616.013"/>
<polygon fill="grey" stroke="grey" points="907.541,-612.684 896.964,-612.068 904.849,-619.145 907.541,-612.684"/>
</g>
<!-- 51&#45;&gt;44 -->
<g id="edge57" class="edge"><title>51&#45;&gt;44</title>
<path fill="none" stroke="grey" stroke-width="2" d="M1024,-647.697C1024,-639.983 1024,-630.712 1024,-622.112"/>
<polygon fill="grey" stroke="grey" points="1027.5,-622.104 1024,-612.104 1020.5,-622.104 1027.5,-622.104"/>
</g>
<!-- 51&#45;&gt;45 -->
<g id="edge58" class="edge"><title>51&#45;&gt;45</title>
<path fill="none" stroke="grey" stroke-width="2" d="M1058.25,-647.876C1077.06,-638.469 1100.58,-626.708 1120.67,-616.667"/>
<polygon fill="grey" stroke="grey" points="1122.24,-619.792 1129.62,-612.19 1119.11,-613.531 1122.24,-619.792"/>
</g>
<!-- 52 -->
<g id="node53" class="node"><title>52</title>
<path fill="none" stroke="#d6d856" stroke-width="2" d="M262.25,-756C262.25,-756 193.75,-756 193.75,-756 187.75,-756 181.75,-750 181.75,-744 181.75,-744 181.75,-732 181.75,-732 181.75,-726 187.75,-720 193.75,-720 193.75,-720 262.25,-720 262.25,-720 268.25,-720 274.25,-726 274.25,-732 274.25,-732 274.25,-744 274.25,-744 274.25,-750 268.25,-756 262.25,-756"/>
<text text-anchor="middle" x="228" y="-735.5" font-family="sans" font-size="10.00">_fc_e_sort_bam</text>
</g>
<!-- 52&#45;&gt;48 -->
<g id="edge59" class="edge"><title>52&#45;&gt;48</title>
<path fill="none" stroke="grey" stroke-width="2" d="M228,-719.697C228,-711.983 228,-702.712 228,-694.112"/>
<polygon fill="grey" stroke="grey" points="231.5,-694.104 228,-684.104 224.5,-694.104 231.5,-694.104"/>
</g>
<!-- 53 -->
<g id="node54" class="node"><title>53</title>
<path fill="none" stroke="#d6d856" stroke-width="2" d="M104.25,-756C104.25,-756 35.75,-756 35.75,-756 29.75,-756 23.75,-750 23.75,-744 23.75,-744 23.75,-732 23.75,-732 23.75,-726 29.75,-720 35.75,-720 35.75,-720 104.25,-720 104.25,-720 110.25,-720 116.25,-726 116.25,-732 116.25,-732 116.25,-744 116.25,-744 116.25,-750 110.25,-756 104.25,-756"/>
<text text-anchor="middle" x="70" y="-735.5" font-family="sans" font-size="10.00">_fc_e_sort_bam</text>
</g>
<!-- 53&#45;&gt;49 -->
<g id="edge60" class="edge"><title>53&#45;&gt;49</title>
<path fill="none" stroke="grey" stroke-width="2" d="M70,-719.697C70,-711.983 70,-702.712 70,-694.112"/>
<polygon fill="grey" stroke="grey" points="73.5001,-694.104 70,-684.104 66.5001,-694.104 73.5001,-694.104"/>
</g>
<!-- 54 -->
<g id="node55" class="node"><title>54</title>
<path fill="none" stroke="#56d863" stroke-width="2" d="M268.25,-828C268.25,-828 187.75,-828 187.75,-828 181.75,-828 175.75,-822 175.75,-816 175.75,-816 175.75,-804 175.75,-804 175.75,-798 181.75,-792 187.75,-792 187.75,-792 268.25,-792 268.25,-792 274.25,-792 280.25,-798 280.25,-804 280.25,-804 280.25,-816 280.25,-816 280.25,-822 274.25,-828 268.25,-828"/>
<text text-anchor="middle" x="228" y="-807.5" font-family="sans" font-size="10.00">_fc_d_create_bam</text>
</g>
<!-- 54&#45;&gt;52 -->
<g id="edge61" class="edge"><title>54&#45;&gt;52</title>
<path fill="none" stroke="grey" stroke-width="2" d="M228,-791.697C228,-783.983 228,-774.712 228,-766.112"/>
<polygon fill="grey" stroke="grey" points="231.5,-766.104 228,-756.104 224.5,-766.104 231.5,-766.104"/>
</g>
<!-- 55 -->
<g id="node56" class="node"><title>55</title>
<path fill="none" stroke="#56d863" stroke-width="2" d="M110.25,-828C110.25,-828 29.75,-828 29.75,-828 23.75,-828 17.75,-822 17.75,-816 17.75,-816 17.75,-804 17.75,-804 17.75,-798 23.75,-792 29.75,-792 29.75,-792 110.25,-792 110.25,-792 116.25,-792 122.25,-798 122.25,-804 122.25,-804 122.25,-816 122.25,-816 122.25,-822 116.25,-828 110.25,-828"/>
<text text-anchor="middle" x="70" y="-807.5" font-family="sans" font-size="10.00">_fc_d_create_bam</text>
</g>
<!-- 55&#45;&gt;53 -->
<g id="edge62" class="edge"><title>55&#45;&gt;53</title>
<path fill="none" stroke="grey" stroke-width="2" d="M70,-791.697C70,-783.983 70,-774.712 70,-766.112"/>
<polygon fill="grey" stroke="grey" points="73.5001,-766.104 70,-756.104 66.5001,-766.104 73.5001,-766.104"/>
</g>
<!-- 56 -->
<g id="node57" class="node"><title>56</title>
<path fill="none" stroke="#56c9d8" stroke-width="2" d="M282.25,-900C282.25,-900 173.75,-900 173.75,-900 167.75,-900 161.75,-894 161.75,-888 161.75,-888 161.75,-876 161.75,-876 161.75,-870 167.75,-864 173.75,-864 173.75,-864 282.25,-864 282.25,-864 288.25,-864 294.25,-870 294.25,-876 294.25,-876 294.25,-888 294.25,-888 294.25,-894 288.25,-900 282.25,-900"/>
<text text-anchor="middle" x="228" y="-879.5" font-family="sans" font-size="10.00">_fc_c_map_primary_bt2</text>
</g>
<!-- 56&#45;&gt;54 -->
<g id="edge63" class="edge"><title>56&#45;&gt;54</title>
<path fill="none" stroke="grey" stroke-width="2" d="M228,-863.697C228,-855.983 228,-846.712 228,-838.112"/>
<polygon fill="grey" stroke="grey" points="231.5,-838.104 228,-828.104 224.5,-838.104 231.5,-838.104"/>
</g>
<!-- 57 -->
<g id="node58" class="node"><title>57</title>
<path fill="none" stroke="#56c9d8" stroke-width="2" d="M124.25,-900C124.25,-900 15.75,-900 15.75,-900 9.75,-900 3.75,-894 3.75,-888 3.75,-888 3.75,-876 3.75,-876 3.75,-870 9.75,-864 15.75,-864 15.75,-864 124.25,-864 124.25,-864 130.25,-864 136.25,-870 136.25,-876 136.25,-876 136.25,-888 136.25,-888 136.25,-894 130.25,-900 124.25,-900"/>
<text text-anchor="middle" x="70" y="-879.5" font-family="sans" font-size="10.00">_fc_c_map_primary_bt2</text>
</g>
<!-- 57&#45;&gt;55 -->
<g id="edge64" class="edge"><title>57&#45;&gt;55</title>
<path fill="none" stroke="grey" stroke-width="2" d="M70,-863.697C70,-855.983 70,-846.712 70,-838.112"/>
<polygon fill="grey" stroke="grey" points="73.5001,-838.104 70,-828.104 66.5001,-838.104 73.5001,-838.104"/>
</g>
<!-- 58 -->
<g id="node59" class="node"><title>58</title>
<path fill="none" stroke="#d8bc56" stroke-width="2" d="M278.25,-972C278.25,-972 177.75,-972 177.75,-972 171.75,-972 165.75,-966 165.75,-960 165.75,-960 165.75,-948 165.75,-948 165.75,-942 171.75,-936 177.75,-936 177.75,-936 278.25,-936 278.25,-936 284.25,-936 290.25,-942 290.25,-948 290.25,-948 290.25,-960 290.25,-960 290.25,-966 284.25,-972 278.25,-972"/>
<text text-anchor="middle" x="228" y="-957" font-family="sans" font-size="10.00">_fc_b_prepare_files_fc</text>
<text text-anchor="middle" x="228" y="-946" font-family="sans" font-size="10.00">name: SRR3184285</text>
</g>
<!-- 58&#45;&gt;56 -->
<g id="edge65" class="edge"><title>58&#45;&gt;56</title>
<path fill="none" stroke="grey" stroke-width="2" d="M228,-935.697C228,-927.983 228,-918.712 228,-910.112"/>
<polygon fill="grey" stroke="grey" points="231.5,-910.104 228,-900.104 224.5,-910.104 231.5,-910.104"/>
</g>
<!-- 59 -->
<g id="node60" class="node"><title>59</title>
<path fill="none" stroke="#d8bc56" stroke-width="2" d="M120.25,-972C120.25,-972 19.75,-972 19.75,-972 13.75,-972 7.75,-966 7.75,-960 7.75,-960 7.75,-948 7.75,-948 7.75,-942 13.75,-936 19.75,-936 19.75,-936 120.25,-936 120.25,-936 126.25,-936 132.25,-942 132.25,-948 132.25,-948 132.25,-960 132.25,-960 132.25,-966 126.25,-972 120.25,-972"/>
<text text-anchor="middle" x="70" y="-957" font-family="sans" font-size="10.00">_fc_b_prepare_files_fc</text>
<text text-anchor="middle" x="70" y="-946" font-family="sans" font-size="10.00">name: SRR3184300</text>
</g>
<!-- 59&#45;&gt;57 -->
<g id="edge66" class="edge"><title>59&#45;&gt;57</title>
<path fill="none" stroke="grey" stroke-width="2" d="M70,-935.697C70,-927.983 70,-918.712 70,-910.112"/>
<polygon fill="grey" stroke="grey" points="73.5001,-910.104 70,-900.104 66.5001,-910.104 73.5001,-910.104"/>
</g>
</g>
</svg>
